# xmcd CD database file
#
# Track frame offsets:
#	150
#	19895
#	39360
#	52816
#	76086
#	94262
#	112179
#	134483
#	156561
#	168296
#	186058
#
# Disc length: 2702 seconds
#
# Revision: 0
# Processed by: cddbd v1.5.2PL0 Copyright (c) Steve Scherf et al.
# Submitted via: CDex 1.51
#
DISCID=8a0a8c0b
DTITLE=Nick Katzman - Songs and Bloozes!
DYEAR=2002
DGENRE=Blues
TTITLE0=Old Enough To Smoke
TTITLE1=Weary And Troubled
TTITLE2=Sweetie Sweetie Mama
TTITLE3=Love Insurance
TTITLE4=Shut Yo' Mouth
TTITLE5=Hannah
TTITLE6=Waitin' For A Real Good Hand
TTITLE7=If There Wasn't No Wine
TTITLE8=Where's The Bride?
TTITLE9=On The Side
TTITLE10=Jump Start
EXTD=YEAR: 2002
EXTT0=
EXTT1=
EXTT2=
EXTT3=
EXTT4=
EXTT5=
EXTT6=
EXTT7=
EXTT8=
EXTT9=
EXTT10=
PLAYORDER=
